<?xml version="1.0" encoding="utf-8"?>
<!-- Generator: Adobe Illustrator 21.0.2, SVG Export Plug-In . SVG Version: 6.00 Build 0)  -->
<svg version="1.1" id="Layer_1" xmlns="http://www.w3.org/2000/svg" xmlns:xlink="http://www.w3.org/1999/xlink" x="0px" y="0px"
	 viewBox="0 0 538 185" style="enable-background: new 0 0 538 185;" xml:space="preserve">
<style type="text/css">
  .st0 { fill: #333; }
</style>
<g>
	<g>
		<path class="st0" d="M42.2,167.4c0,4.5-1.4,8.1-4.3,10.8c-2.9,2.7-6.7,4-11.5,4c-3.3,0-6.2-0.8-8.7-2.5c-2.5-1.7-4.3-4-5.4-7.1
			l2.9-1.5c0.9,2.5,2.4,4.4,4.4,5.8c2,1.4,4.4,2.1,7.1,2.1c3.8,0,6.8-1,8.9-3.1c2.2-2.1,3.3-4.9,3.3-8.5c0-2.7-0.9-5.1-2.6-7
			c-1.8-2-4.6-3.9-8.7-5.8c-5-2.3-8.4-4.5-10.3-6.5c-1.9-2-2.8-4.7-2.8-8.1c0-3.5,1.2-6.4,3.7-8.6c2.4-2.2,5.7-3.3,9.6-3.3
			c2.4,0,4.5,0.5,6.4,1.5c1.8,1,3.3,2.4,4.5,4.4l-2.6,1.9c-0.9-1.5-2.1-2.6-3.6-3.4c-1.5-0.8-3.2-1.2-5-1.2c-3,0-5.3,0.8-7,2.4
			c-1.7,1.6-2.6,3.7-2.6,6.5c0,2.2,0.6,4,1.7,5.4c1.1,1.4,3.1,2.9,6,4.4c0.8,0.4,1.9,1,3.4,1.7C37.8,156,42.2,161.3,42.2,167.4z"/>
		<path class="st0" d="M115.3,131.9h-12.7v49.7h-3.4v-49.7H86.6v-3.1h28.7V131.9z"/>
		<path class="st0" d="M199.4,161.9c0,7.2-1.4,12.4-4.1,15.5c-2.8,3.2-7.2,4.7-13.4,4.7c-6.2,0-10.6-1.6-13.4-4.7
			c-2.8-3.2-4.1-8.3-4.1-15.5v-33.2h3.4v34.1c0,5.7,1.1,9.8,3.4,12.4c2.3,2.6,5.9,3.8,10.8,3.8c4.9,0,8.5-1.3,10.8-3.8
			c2.3-2.6,3.4-6.7,3.4-12.4v-34.1h3.4V161.9z"/>
		<path class="st0" d="M289.5,155.2c0,8.9-2.5,15.5-7.4,19.8c-4.9,4.3-12.5,6.5-22.7,6.5H253v-52.8h7.4c9.5,0,16.7,2.3,21.7,6.9
			C287.1,140.2,289.5,146.7,289.5,155.2z M286.2,155.1c0-7.6-2.2-13.4-6.7-17.4c-4.4-3.9-11-5.9-19.7-5.9h-3.5v46.5h2.5
			c9.7,0,16.7-1.9,20.9-5.6C284.1,169.1,286.2,163.2,286.2,155.1z"/>
		<path class="st0" d="M343.7,181.5h-3.4v-52.8h3.4V181.5z"/>
		<path class="st0" d="M448.6,155.1c0,7.5-2.7,13.9-8,19.2c-5.3,5.3-11.8,7.9-19.4,7.9c-7.5,0-13.9-2.6-19.2-7.9
			c-5.3-5.3-7.9-11.7-7.9-19.2c0-7.7,2.6-14.2,7.8-19.3c5.2-5.2,11.7-7.8,19.4-7.8c7.7,0,14.2,2.6,19.5,7.8
			C446,141,448.6,147.4,448.6,155.1z M445.3,155.1c0-6.7-2.3-12.4-7-17c-4.6-4.6-10.3-6.9-17-6.9c-6.7,0-12.3,2.3-16.9,6.9
			c-4.6,4.6-6.9,10.3-6.9,17c0,6.7,2.3,12.4,6.9,17c4.6,4.6,10.2,6.9,16.9,6.9c6.7,0,12.4-2.3,17-6.9
			C442.9,167.5,445.3,161.8,445.3,155.1z"/>
		<path class="st0" d="M525.2,167.4c0,4.5-1.4,8.1-4.3,10.8c-2.9,2.7-6.7,4-11.5,4c-3.3,0-6.2-0.8-8.7-2.5c-2.5-1.7-4.3-4-5.4-7.1
			l2.9-1.5c0.9,2.5,2.4,4.4,4.4,5.8c2,1.4,4.4,2.1,7.1,2.1c3.8,0,6.8-1,8.9-3.1c2.2-2.1,3.3-4.9,3.3-8.5c0-2.7-0.9-5.1-2.6-7
			c-1.8-2-4.6-3.9-8.7-5.8c-5-2.3-8.4-4.5-10.3-6.5c-1.9-2-2.8-4.7-2.8-8.1c0-3.5,1.2-6.4,3.7-8.6c2.4-2.2,5.7-3.3,9.6-3.3
			c2.4,0,4.5,0.5,6.4,1.5c1.8,1,3.3,2.4,4.5,4.4l-2.6,1.9c-0.9-1.5-2.1-2.6-3.6-3.4c-1.5-0.8-3.2-1.2-5-1.2c-3,0-5.3,0.8-7,2.4
			c-1.7,1.6-2.6,3.7-2.6,6.5c0,2.2,0.6,4,1.7,5.4c1.1,1.4,3.1,2.9,6,4.4c0.8,0.4,1.9,1,3.4,1.7C520.7,156,525.2,161.3,525.2,167.4z"
			/>
	</g>
	<g>
		<polygon class="st0" points="513.3,28.7 512.7,30.4 492.4,83 471.4,28.7 455.1,28.7 485.4,105.4 499.4,105.4 529.6,28.7 		"/>
		<polygon class="st0" points="102.1,30.1 84.6,82.8 69.4,36.5 57.3,36.5 42.2,82.8 24.6,30.1 8.4,30.1 35.1,106.9 48.6,106.9
			63.2,61.2 78,106.9 91.6,106.9 118.1,30.1 		"/>
		<path class="st0" d="M197.2,60.7h-17.5h-5.7h-46.3c2.2-10.2,11.7-18.7,24.5-18.7h0l0.1,0c0.2,0,0.4,0,0.6,0
			c8.6,0,16.2,4.9,20.5,11.4l0.8,1.3h16.1l-1.8-3.9c-2-4.3-4.8-8.3-8.3-11.7c-7.3-7-17.3-10.8-28-10.8c-11.4,0-21.5,4.5-28.7,11.8
			c-7.2,7.3-11.5,17.5-11.5,28.7c0,9.5,3.4,19.5,10.2,27.2c6.8,7.7,17,13,30.1,13c0,0,0,0,0.1,0c7.8,0,15.3-2.1,21.8-6.3
			c6.6-4.1,12-10.4,15.5-18.6l1.7-3.8H175l-0.8,1.5c-4.2,8.4-12,13.1-22,13.2c-0.1,0-0.2,0-0.3,0c-5.4,0-11.6-2-16.3-5.9
			c-4.2-3.5-7.3-8.3-8.2-14.9h69.9l0.2-2.5c0.1-1.2,0.2-2.5,0.2-3.7c0-1.6-0.1-3.2-0.3-4.7L197.2,60.7z"/>
		<path class="st0" d="M461.3,60.7h-17.5v0h-5.7l-46.3,0C394,50.5,403.6,42,416.4,42h0.1c0.2,0,0.4,0,0.6,0
			c8.6,0,16.2,4.9,20.5,11.4l0.8,1.3h16.1l-1.8-3.9c-2-4.3-4.8-8.3-8.3-11.7c-7.3-7-17.3-10.8-28-10.8c-11.4,0-21.5,4.5-28.7,11.9
			c-7.2,7.3-11.5,17.5-11.5,28.7c0,9.5,3.4,19.5,10.2,27.2c6.8,7.7,17,13,30.1,13c0,0,0,0,0.1,0c7.8,0,15.3-2.1,21.8-6.3
			c6.6-4.1,12-10.4,15.5-18.6l1.7-3.8h-16.1l-0.8,1.5c-4.2,8.4-12,13.1-22,13.2c-0.1,0-0.2,0-0.3,0c-5.4,0-11.6-2-16.3-5.9
			c-4.2-3.5-7.3-8.3-8.2-15h69.9l0.2-2.5c0.1-1.2,0.2-2.5,0.2-3.7c0-1.6-0.1-3.2-0.3-4.7L461.3,60.7z"/>
		<path class="st0" d="M272.6,40c-7.3-6.9-17-10.6-27-10.6h0h0c-5,0.1-10.3,1.2-15.2,3.6c-3.7,1.8-7.1,4.2-10.1,7.4v-7V2.8h-17.4
			v1.7v104h16.8v-9c5.6,6.8,14.6,11.2,25.4,11.1c11,0,20.9-4.1,28-11.2c7.2-7.2,11.5-17.4,11.5-29.7C284.6,57.1,279.9,46.9,272.6,40
			z M267.2,70c-0.1,6-2.2,12.1-6.3,16.6c-4.1,4.5-10,7.6-17.9,7.6c-7.1,0-12.8-2.8-16.9-7.2c-4.1-4.4-6.4-10.5-6.4-17.1
			c0-6.6,2.4-12.6,6.6-16.9c4.2-4.4,10.1-7.1,17.2-7.1c6.8,0,12.7,2.7,17,7c4.2,4.3,6.8,10.3,6.8,17.1V70z"/>
		<path class="st0" d="M289.7,69.8c0,12.2,4.4,22.5,11.5,29.7c7.2,7.2,17.1,11.2,28,11.2c10.8,0,19.8-4.4,25.4-11.1v9h16.8V4.4V2.8
			h-17.4v30.6v7c-3-3.2-6.5-5.6-10.1-7.4c-5-2.4-10.3-3.5-15.2-3.6h0h0c-9.9,0-19.7,3.7-27,10.6C294.4,46.9,289.7,57.1,289.7,69.8z
			 M307.1,69.9c0-6.7,2.6-12.7,6.8-17.1c4.2-4.3,10.2-7,17-7c7.1,0,13,2.8,17.2,7.1c4.2,4.4,6.6,10.4,6.6,16.9
			c0,6.6-2.4,12.7-6.4,17.1c-4.1,4.4-9.9,7.2-16.9,7.2c-8,0-13.9-3.1-17.9-7.6c-4.1-4.5-6.2-10.6-6.3-16.6V69.9z"/>
	</g>
</g>
</svg>
